<svg width="40" height="40" viewBox="0 0 40 40" fill="none" xmlns="http://www.w3.org/2000/svg">
<circle cx="20" cy="20" r="20" fill="#FEF2F2"/>
<path d="M7.30769 30.625C9.35898 29.3109 11.403 28.3253 13.4397 27.6683C15.4764 27.0112 17.6639 26.6827 20.0022 26.6827C22.3405 26.6827 24.5272 27.0112 26.5625 27.6683C28.5978 28.3253 30.6731 29.3109 32.7885 30.625C34.1667 28.8301 35.1282 27.0833 35.6731 25.3846C36.2179 23.6859 36.4904 21.891 36.4904 20C36.4904 15.3205 34.9119 11.4022 31.7548 8.24519C28.5978 5.08814 24.6795 3.50962 20 3.50962C15.3205 3.50962 11.4022 5.08814 8.24519 8.24519C5.08814 11.4022 3.50962 15.3205 3.50962 20C3.50962 21.891 3.79006 23.6859 4.35096 25.3846C4.91186 27.0833 5.89744 28.8301 7.30769 30.625ZM19.993 22.0192C17.9784 22.0192 16.2821 21.3278 14.9038 19.9449C13.5256 18.5621 12.8365 16.8633 12.8365 14.8488C12.8365 12.8342 13.528 11.1378 14.9109 9.75962C16.2937 8.38141 17.9924 7.69231 20.007 7.69231C22.0216 7.69231 23.718 8.38375 25.0962 9.76664C26.4744 11.1495 27.1635 12.8482 27.1635 14.8628C27.1635 16.8773 26.472 18.5737 25.0891 19.9519C23.7063 21.3301 22.0076 22.0192 19.993 22.0192ZM19.9728 40C17.2489 40 14.6644 39.4716 12.2191 38.4147C9.77394 37.3579 7.64696 35.9156 5.83817 34.0878C4.02939 32.26 2.60417 30.1388 1.5625 27.724C0.520833 25.3092 0 22.7266 0 19.976C0 17.2254 0.532211 14.6407 1.59663 12.2219C2.66109 9.80306 4.10284 7.68643 5.92188 5.87197C7.74091 4.05752 9.85838 2.62524 12.2743 1.57514C14.6902 0.525048 17.2734 0 20.024 0C22.7746 0 25.3574 0.532692 27.7724 1.59808C30.1874 2.66346 32.2969 4.09904 34.1009 5.90481C35.9049 7.71058 37.3391 9.82338 38.4035 12.2432C39.4678 14.6631 40 17.2444 40 19.9872C40 22.7351 39.475 25.3158 38.4249 27.7293C37.3748 30.1428 35.9414 32.2591 34.1247 34.0781C32.308 35.8972 30.1855 37.3389 27.7571 38.4034C25.3286 39.4678 22.7339 40 19.9728 40Z" fill="#2C0600"/>
</svg>
